<svg width="210" height="24" viewBox="0 0 210 24" fill="none" xmlns="http://www.w3.org/2000/svg">
<path d="M56 2.5L58.5 0L61 2.5L58.5 5L56 2.5Z" fill="#DD8560"/>
<path d="M0 0.397789V14.6519C0 15.558 0.088245 16.5635 0.264735 17.6685C0.441225 18.7514 0.860389 19.768 1.52223 20.7182C2.18406 21.6464 3.16579 22.4309 4.4674 23.0718C5.76902 23.6906 7.54495 24 9.7952 24C11.2071 24 12.4536 23.779 13.5346 23.337C14.6376 22.895 15.5532 22.2873 16.2812 21.5138C17.0313 20.7403 17.5938 19.8453 17.9689 18.8287C18.3439 17.7901 18.5315 16.6851 18.5315 15.5138V0.397789H17.0754V14.4199C17.0754 14.9061 17.0644 15.4033 17.0423 15.9116C17.0203 16.3978 16.9541 16.895 16.8438 17.4033C16.7335 17.8895 16.557 18.3757 16.3143 18.8619C16.0937 19.3481 15.7628 19.8343 15.3215 20.3204C14.5273 21.1823 13.6339 21.768 12.6411 22.0773C11.6483 22.3867 10.6115 22.5414 9.53046 22.5414C8.60389 22.5414 7.77659 22.3978 7.04857 22.1105C6.34261 21.8232 5.66974 21.3923 5.02996 20.8177C4.52256 20.3757 4.13648 19.9337 3.87175 19.4917C3.60701 19.0497 3.40846 18.6188 3.2761 18.1989C3.14373 17.7569 3.06651 17.3149 3.04445 16.8729C3.02239 16.4309 3.01136 15.989 3.01136 15.547V0.397789H0Z" fill="#2B2A28"/>
<path d="M45.1283 0.397789V18.1326H44.9959L26.6299 5.04484e-07H26.4645V23.6022H27.9867V5.8674H28.119L46.485 24H46.6505V0.397789H45.1283Z" fill="#2B2A28"/>
<path d="M57.227 7V23.6022H60.2383V7H57.227Z" fill="#2B2A28"/>
<path d="M70.8321 0.397789V23.6022H73.8435V13.3591H75.2995C75.9172 13.3591 76.4247 13.4144 76.8218 13.5249C77.2409 13.6354 77.616 13.8232 77.9469 14.0884C78.2778 14.3536 78.5867 14.6961 78.8735 15.116C79.1602 15.5359 79.5022 16.0552 79.8993 16.674L82.5136 20.5525C82.8445 21.0608 83.1644 21.5249 83.4732 21.9448C83.8041 22.3646 84.1571 22.7293 84.5322 23.0387C84.9072 23.326 85.3264 23.558 85.7897 23.7348C86.275 23.9116 86.8486 24 87.5104 24C87.9958 24 88.3929 23.9779 88.7017 23.9337C89.0106 23.8895 89.3195 23.779 89.6283 23.6022V22.3757C89.518 22.3978 89.4077 22.4199 89.2974 22.442C89.1871 22.442 89.0768 22.442 88.9665 22.442C88.5032 22.442 88.0951 22.3757 87.7421 22.2431C87.3891 22.1105 87.0582 21.9227 86.7493 21.6796C86.4405 21.4144 86.1426 21.105 85.8558 20.7514C85.569 20.3757 85.2712 19.9558 84.9624 19.4917C84.0358 18.1436 83.3188 17.0718 82.8114 16.2762C82.304 15.4586 81.8958 14.8287 81.587 14.3867C81.3002 13.9448 81.0575 13.6243 80.859 13.4254C80.6825 13.2265 80.4619 13.0608 80.1971 12.9282L79.8662 12.7624V12.6298C80.9251 12.5635 81.8297 12.3315 82.5797 11.9337C83.3519 11.5359 83.9806 11.0387 84.466 10.442C84.9513 9.8453 85.3043 9.20442 85.5249 8.51934C85.7455 7.81216 85.8558 7.12707 85.8558 6.46409C85.8558 5.8674 85.7345 5.21547 85.4918 4.50829C85.2712 3.8011 84.8741 3.14917 84.3005 2.55249C83.749 1.9337 82.9879 1.42541 82.0172 1.02762C81.0465 0.607734 79.8221 0.397789 78.344 0.397789H70.8321ZM73.8435 1.85635H77.1858C78.0241 1.85635 78.7742 1.9779 79.436 2.22099C80.1199 2.46409 80.7045 2.80663 81.1899 3.24862C81.6752 3.66851 82.0392 4.1768 82.2819 4.77348C82.5466 5.37017 82.679 6.0221 82.679 6.72928C82.679 7.32597 82.5577 7.9337 82.315 8.55249C82.0944 9.14917 81.7524 9.70166 81.2892 10.2099C80.8259 10.6961 80.2523 11.0939 79.5684 11.4033C78.9065 11.7127 78.1344 11.8674 77.2519 11.8674H73.8435V1.85635Z" fill="#2B2A28"/>
<path d="M95.9083 0.397789V23.6022H110.866V21.779H98.9196V12.0663H109.178V10.5414H98.9196V2.22099H110.866V0.397789H95.9083Z" fill="#2B2A28"/>
<path d="M135.803 0.397789V18.1326H135.67L117.304 5.04484e-07H117.139V23.6022H118.661V5.8674H118.793L137.159 24H137.325V0.397789H135.803Z" fill="#2B2A28"/>
<path d="M155.148 23.6022V2.22099H164.017V0.397789H143.268V2.22099H152.137V23.6022H155.148Z" fill="#2B2A28"/>
<path d="M169.973 0.397789V23.6022H184.931V21.779H172.985V12.0663H183.243V10.5414H172.985V2.22099H184.931V0.397789H169.973Z" fill="#2B2A28"/>
<path d="M191.204 0.397789V23.6022H194.215V13.3591H195.671C196.289 13.3591 196.796 13.4144 197.193 13.5249C197.613 13.6354 197.988 13.8232 198.319 14.0884C198.649 14.3536 198.958 14.6961 199.245 15.116C199.532 15.5359 199.874 16.0552 200.271 16.674L202.885 20.5525C203.216 21.0608 203.536 21.5249 203.845 21.9448C204.176 22.3646 204.529 22.7293 204.904 23.0387C205.279 23.326 205.698 23.558 206.161 23.7348C206.647 23.9116 207.22 24 207.882 24C208.367 24 208.765 23.9779 209.073 23.9337C209.382 23.8895 209.691 23.779 210 23.6022V22.3757C209.89 22.3978 209.779 22.4199 209.669 22.442C209.559 22.442 209.448 22.442 209.338 22.442C208.875 22.442 208.467 22.3757 208.114 22.2431C207.761 22.1105 207.43 21.9227 207.121 21.6796C206.812 21.4144 206.514 21.105 206.228 20.7514C205.941 20.3757 205.643 19.9558 205.334 19.4917C204.407 18.1436 203.69 17.0718 203.183 16.2762C202.676 15.4586 202.268 14.8287 201.959 14.3867C201.672 13.9448 201.429 13.6243 201.231 13.4254C201.054 13.2265 200.834 13.0608 200.569 12.9282L200.238 12.7624V12.6298C201.297 12.5635 202.201 12.3315 202.951 11.9337C203.724 11.5359 204.352 11.0387 204.838 10.442C205.323 9.8453 205.676 9.20442 205.897 8.51934C206.117 7.81216 206.228 7.12707 206.228 6.46409C206.228 5.8674 206.106 5.21547 205.864 4.50829C205.643 3.8011 205.246 3.14917 204.672 2.55249C204.121 1.9337 203.36 1.42541 202.389 1.02762C201.418 0.607734 200.194 0.397789 198.716 0.397789H191.204ZM194.215 1.85635H197.557C198.396 1.85635 199.146 1.9779 199.808 2.22099C200.492 2.46409 201.076 2.80663 201.562 3.24862C202.047 3.66851 202.411 4.1768 202.654 4.77348C202.918 5.37017 203.051 6.0221 203.051 6.72928C203.051 7.32597 202.929 7.9337 202.687 8.55249C202.466 9.14917 202.124 9.70166 201.661 10.2099C201.198 10.6961 200.624 11.0939 199.94 11.4033C199.278 11.7127 198.506 11.8674 197.624 11.8674H194.215V1.85635Z" fill="#2B2A28"/>
</svg>
