<svg width="40" height="40" viewBox="0 0 40 40" fill="none" xmlns="http://www.w3.org/2000/svg">
<path d="M40 20C40 31.0457 31.0457 40 20 40C8.95431 40 0 31.0457 0 20C0 8.95431 8.95431 0 20 0C31.0457 0 40 8.95431 40 20ZM1 20C1 30.4934 9.50659 39 20 39C30.4934 39 39 30.4934 39 20C39 9.50659 30.4934 1 20 1C9.50659 1 1 9.50659 1 20Z" fill="#F9F9F9"/>
<path d="M23.3313 13.3208H25.1571V10.1408C24.8421 10.0975 23.7588 10 22.4971 10C19.8646 10 18.0613 11.6558 18.0613 14.6992V17.5H15.1562V21.055H18.0613V30H21.6229V21.0558H24.4104L24.8529 17.5008H21.6221V15.0517C21.6229 14.0242 21.8996 13.3208 23.3313 13.3208Z" fill="#3B5998"/>
</svg>
