<svg width="24" height="24" viewBox="0 0 24 24" fill="none" xmlns="http://www.w3.org/2000/svg">
<path d="M18.75 5.11163C19.0484 5.11163 19.3345 5.22874 19.5455 5.43722C19.7565 5.64569 19.875 5.92843 19.875 6.22325V15.1163C19.875 15.4111 19.7565 15.6938 19.5455 15.9023C19.3345 16.1108 19.0484 16.2279 18.75 16.2279H7.96575C7.36906 16.228 6.79686 16.4623 6.375 16.8793L4.125 19.1026V6.22325C4.125 5.92843 4.24353 5.64569 4.4545 5.43722C4.66548 5.22874 4.95163 5.11163 5.25 5.11163H18.75ZM5.25 4C4.65326 4 4.08097 4.23424 3.65901 4.65118C3.23705 5.06812 3 5.63361 3 6.22325L3 20.4443C3.00002 20.5543 3.03307 20.6618 3.09495 20.7532C3.15683 20.8446 3.24476 20.9158 3.34762 20.9578C3.45049 20.9999 3.56365 21.0108 3.67279 20.9892C3.78193 20.9676 3.88215 20.9146 3.96075 20.8367L7.17038 17.6652C7.3813 17.4568 7.66741 17.3396 7.96575 17.3395H18.75C19.3467 17.3395 19.919 17.1053 20.341 16.6884C20.7629 16.2714 21 15.7059 21 15.1163V6.22325C21 5.63361 20.7629 5.06812 20.341 4.65118C19.919 4.23424 19.3467 4 18.75 4H5.25Z" fill="#2B2A28"/>
</svg>
