<svg width="24" height="24" viewBox="0 0 24 24" fill="none" xmlns="http://www.w3.org/2000/svg">
<path d="M13.8644 8.2363H10.1339C8.58889 8.2363 6.26539 6.9298 5.40739 6.0658C4.19989 4.8493 4.19989 2.8678 5.40889 1.6513C6.58339 0.469297 8.63239 0.469297 9.80839 1.6513C10.4579 2.3053 12.1829 4.9618 11.9459 6.7348H12.0524C11.8154 4.9618 13.5404 2.3053 14.1914 1.6513C15.3644 0.469297 17.4134 0.466297 18.5909 1.6513C19.8014 2.8678 19.8014 4.8478 18.5909 6.0643C17.7329 6.9283 15.4094 8.2363 13.8644 8.2363ZM13.8644 6.7363C14.9009 6.7363 16.8809 5.6593 17.5259 5.0083C18.1559 4.3753 18.1559 3.3433 17.5259 2.7103C16.9169 2.0968 15.8594 2.0998 15.2534 2.7103C14.2424 3.7273 13.2374 6.3253 13.5869 6.6868C13.5884 6.6868 13.6514 6.7363 13.8644 6.7363ZM7.60939 2.2363C7.18039 2.2363 6.77689 2.4043 6.47239 2.7103C5.84389 3.3433 5.84389 4.3753 6.47239 5.0083C7.11889 5.6593 9.09739 6.7363 10.1339 6.7363C10.3484 6.7363 10.4114 6.6883 10.4114 6.6883C10.7609 6.3238 9.75589 3.7258 8.74489 2.7103C8.44039 2.4043 8.03689 2.2363 7.60939 2.2363Z" fill="#F44336"/>
<path d="M1.5 11.2363V21.7363C1.5 22.5643 2.1735 23.2363 3 23.2363H21C21.828 23.2363 22.5 22.5643 22.5 21.7363V11.2363H1.5Z" fill="#FFC107"/>
<path d="M22.5 6.73633H1.5C0.6735 6.73633 0 7.40983 0 8.23633V11.9863C0 12.4003 0.336 12.7364 0.75 12.7364H23.25C23.664 12.7364 24 12.4003 24 11.9863V8.23633C24 7.40833 23.328 6.73633 22.5 6.73633Z" fill="#FFD54F"/>
<path d="M13.5 6.73633H10.5V23.2363H13.5V6.73633Z" fill="#F44336"/>
</svg>
