<svg width="40" height="40" viewBox="0 0 40 40" fill="none" xmlns="http://www.w3.org/2000/svg">
<path d="M40 20C40 31.0457 31.0457 40 20 40C8.95431 40 0 31.0457 0 20C0 8.95431 8.95431 0 20 0C31.0457 0 40 8.95431 40 20ZM1 20C1 30.4934 9.50659 39 20 39C30.4934 39 39 30.4934 39 20C39 9.50659 30.4934 1 20 1C9.50659 1 1 9.50659 1 20Z" fill="#F9F9F9"/>
<path d="M11.2498 11.3608C9.67809 12.9933 9.99976 14.7275 9.99976 19.9958C9.99976 24.3708 9.23643 28.7567 13.2314 29.7892C14.4789 30.11 25.5323 30.11 26.7781 29.7875C28.4414 29.3583 29.7948 28.0092 29.9798 25.6567C30.0056 25.3283 30.0056 14.6692 29.9789 14.3342C29.7823 11.8283 28.2398 10.3842 26.2073 10.0917C25.7414 10.0242 25.6481 10.0042 23.2581 10C14.7806 10.0042 12.9223 9.62666 11.2498 11.3608Z" fill="url(#paint0_linear_1074_2349)"/>
<path d="M19.9969 12.616C16.971 12.616 14.0977 12.3468 13.0002 15.1635C12.5469 16.3268 12.6127 17.8377 12.6127 20.001C12.6127 21.8993 12.5519 23.6835 13.0002 24.8377C14.0952 27.656 16.9919 27.386 19.9952 27.386C22.8927 27.386 25.8802 27.6877 26.991 24.8377C27.4452 23.6627 27.3785 22.1743 27.3785 20.001C27.3785 17.116 27.5377 15.2535 26.1385 13.8552C24.7219 12.4385 22.806 12.616 19.9935 12.616H19.9969ZM19.3352 13.9468C25.6469 13.9368 26.4502 13.2352 26.0069 22.9827C25.8494 26.4302 23.2244 26.0518 19.9977 26.0518C14.1144 26.0518 13.9452 25.8835 13.9452 19.9977C13.9452 14.0435 14.4119 13.9502 19.3352 13.9452V13.9468ZM23.9385 15.1727C23.4494 15.1727 23.0527 15.5693 23.0527 16.0585C23.0527 16.5477 23.4494 16.9443 23.9385 16.9443C24.4277 16.9443 24.8244 16.5477 24.8244 16.0585C24.8244 15.5693 24.4277 15.1727 23.9385 15.1727ZM19.9969 16.2085C17.9027 16.2085 16.2052 17.9068 16.2052 20.001C16.2052 22.0952 17.9027 23.7927 19.9969 23.7927C22.091 23.7927 23.7877 22.0952 23.7877 20.001C23.7877 17.9068 22.091 16.2085 19.9969 16.2085ZM19.9969 17.5393C23.251 17.5393 23.2552 22.4627 19.9969 22.4627C16.7435 22.4627 16.7385 17.5393 19.9969 17.5393Z" fill="white"/>
<defs>
<linearGradient id="paint0_linear_1074_2349" x1="11.2881" y1="28.7226" x2="29.876" y2="12.635" gradientUnits="userSpaceOnUse">
<stop stop-color="#FFDD55"/>
<stop offset="0.5" stop-color="#FF543E"/>
<stop offset="1" stop-color="#C837AB"/>
</linearGradient>
</defs>
</svg>
