<svg width="40" height="40" viewBox="0 0 40 40" fill="none" xmlns="http://www.w3.org/2000/svg">
<path d="M40 20C40 31.0457 31.0457 40 20 40C8.95431 40 0 31.0457 0 20C0 8.95431 8.95431 0 20 0C31.0457 0 40 8.95431 40 20ZM1 20C1 30.4934 9.50659 39 20 39C30.4934 39 39 30.4934 39 20C39 9.50659 30.4934 1 20 1C9.50659 1 1 9.50659 1 20Z" fill="#F9F9F9"/>
<path d="M27.1939 12.8061C25.3844 10.9965 22.9785 10 20.4194 10C17.8604 10 15.4544 10.9965 13.6448 12.8061C11.8353 14.6157 10.8388 17.0215 10.8388 19.5806C10.8388 21.2016 11.2491 22.7946 12.028 24.2057L10 30L15.7943 27.972C17.2054 28.7508 18.7983 29.1612 20.4194 29.1612C22.9784 29.1612 25.3844 28.1646 27.1939 26.3551C29.0034 24.5456 30 22.1397 30 19.5806C30 17.0215 29.0034 14.6156 27.1939 12.8061ZM25.1557 23.1396L24.0496 24.2457C23.1334 25.162 20.5336 24.0478 18.2429 21.7571C15.9522 19.4664 14.838 16.8667 15.7543 15.9504L16.8603 14.8444C17.0894 14.6153 17.4608 14.6153 17.6898 14.8444L19.0724 16.2269C19.3014 16.456 19.3014 16.8274 19.0724 17.0564L18.2429 17.886C19.0475 19.5847 20.4153 20.9525 22.114 21.7571L22.9436 20.9276C23.1726 20.6985 23.544 20.6985 23.7731 20.9276L25.1556 22.3101C25.3847 22.5392 25.3847 22.9106 25.1557 23.1396Z" fill="#43D854"/>
</svg>
